<svg width="722" height="458" viewBox="0 0 722 458" fill="none" xmlns="http://www.w3.org/2000/svg">
<g clip-path="url(#clip0_9284_24064)">
<g filter="url(#filter0_i_9284_24064)">
<rect width="722" height="458" rx="25" fill="url(#paint0_linear_9284_24064)"/>
</g>
<path d="M228.2 363.456C226.936 363.456 225.824 363.208 224.864 362.712C223.904 362.216 223.16 361.488 222.632 360.528C222.104 359.568 221.84 358.392 221.84 357V356.232H225.224V357.288C225.224 358.216 225.496 358.952 226.04 359.496C226.584 360.024 227.296 360.288 228.176 360.288C229.072 360.288 229.784 360.024 230.312 359.496C230.856 358.952 231.128 358.216 231.128 357.288V348H234.536V357C234.536 358.392 234.272 359.568 233.744 360.528C233.216 361.488 232.48 362.216 231.536 362.712C230.592 363.208 229.48 363.456 228.2 363.456ZM223.976 348.48V345.48H234.536V348.48H223.976ZM248.182 363.456C246.55 363.456 245.174 363.144 244.054 362.52C242.934 361.896 242.078 361.024 241.486 359.904C240.91 358.768 240.622 357.44 240.622 355.92V345.48H244.03V356.112C244.03 356.944 244.19 357.68 244.51 358.32C244.83 358.944 245.294 359.432 245.902 359.784C246.526 360.12 247.286 360.288 248.182 360.288C249.062 360.288 249.806 360.12 250.414 359.784C251.038 359.432 251.502 358.944 251.806 358.32C252.126 357.696 252.286 356.96 252.286 356.112V345.48H255.694V355.92C255.694 357.44 255.406 358.768 254.83 359.904C254.27 361.024 253.43 361.896 252.31 362.52C251.19 363.144 249.814 363.456 248.182 363.456ZM262.085 363V345.48H267.677L275.045 360.168H275.837L275.357 360.6V345.48H278.573V363H272.957L265.589 348.312H264.773L265.253 347.88V363H262.085ZM285.346 363V345.48H288.754V363H285.346ZM303.758 363.456C302.174 363.456 300.798 363.176 299.63 362.616C298.478 362.056 297.518 361.328 296.75 360.432C295.998 359.52 295.43 358.544 295.046 357.504C294.678 356.448 294.494 355.432 294.494 354.456V353.928C294.494 352.856 294.686 351.792 295.07 350.736C295.454 349.664 296.03 348.696 296.798 347.832C297.582 346.968 298.55 346.28 299.702 345.768C300.854 345.24 302.206 344.976 303.758 344.976C305.294 344.976 306.638 345.24 307.79 345.768C308.942 346.28 309.902 346.968 310.67 347.832C311.454 348.696 312.038 349.664 312.422 350.736C312.806 351.792 312.998 352.856 312.998 353.928V354.456C312.998 355.432 312.806 356.448 312.422 357.504C312.054 358.544 311.486 359.52 310.718 360.432C309.966 361.328 309.006 362.056 307.838 362.616C306.686 363.176 305.326 363.456 303.758 363.456ZM303.758 360.288C304.654 360.288 305.454 360.128 306.158 359.808C306.878 359.488 307.486 359.048 307.982 358.488C308.494 357.912 308.878 357.264 309.134 356.544C309.406 355.808 309.542 355.032 309.542 354.216C309.542 353.336 309.406 352.528 309.134 351.792C308.878 351.056 308.494 350.416 307.982 349.872C307.486 349.328 306.878 348.904 306.158 348.6C305.438 348.296 304.638 348.144 303.758 348.144C302.862 348.144 302.054 348.296 301.334 348.6C300.614 348.904 299.998 349.328 299.486 349.872C298.99 350.416 298.606 351.056 298.334 351.792C298.078 352.528 297.95 353.336 297.95 354.216C297.95 355.032 298.078 355.808 298.334 356.544C298.606 357.264 298.99 357.912 299.486 358.488C299.998 359.048 300.614 359.488 301.334 359.808C302.054 360.128 302.862 360.288 303.758 360.288ZM318.691 363V345.36H322.099V363H318.691ZM329.395 363L324.019 355.368H327.835L333.379 363H329.395ZM321.091 357.144V354.384H325.555C326.179 354.384 326.715 354.256 327.163 354C327.627 353.744 327.987 353.384 328.243 352.92C328.499 352.456 328.627 351.928 328.627 351.336C328.627 350.728 328.499 350.192 328.243 349.728C327.987 349.264 327.627 348.904 327.163 348.648C326.715 348.392 326.179 348.264 325.555 348.264H321.091V345.36H325.195C326.603 345.36 327.819 345.568 328.843 345.984C329.883 346.4 330.683 347.032 331.243 347.88C331.803 348.728 332.083 349.792 332.083 351.072V351.456C332.083 352.752 331.795 353.816 331.219 354.648C330.659 355.48 329.867 356.104 328.843 356.52C327.819 356.936 326.603 357.144 325.195 357.144H321.091ZM344.216 363L350.192 345.48H355.76L361.904 363H358.4L353.192 347.808L354.416 348.336H351.416L352.664 347.808L347.624 363H344.216ZM348.392 358.344L349.472 355.464H356.576L357.632 358.344H348.392ZM366.907 363V345.48H370.315V363H366.907ZM369.835 363V360H377.395V363H369.835ZM382.573 363V345.48H387.229L391.621 355.944H392.053L396.421 345.48H401.149V363H397.765V348.048L398.197 348.096L393.469 359.424H389.989L385.237 348.096L385.693 348.048V363H382.573ZM407.871 363V345.48H411.207V363H407.871ZM410.727 363V360.12H418.671V363H410.727ZM410.727 355.536V352.656H418.047V355.536H410.727ZM410.727 348.36V345.48H418.479V348.36H410.727ZM424.616 363V345.48H428.024V363H424.616ZM437.724 363.096V359.928H441.348C442.26 359.928 443.068 359.792 443.772 359.52C444.492 359.232 445.1 358.832 445.596 358.32C446.092 357.808 446.468 357.208 446.724 356.52C446.996 355.816 447.132 355.04 447.132 354.192C447.132 353.312 446.996 352.528 446.724 351.84C446.468 351.136 446.092 350.536 445.596 350.04C445.1 349.544 444.492 349.168 443.772 348.912C443.068 348.656 442.26 348.528 441.348 348.528H437.724V345.36H441.132C442.716 345.36 444.1 345.592 445.284 346.056C446.468 346.52 447.452 347.16 448.236 347.976C449.02 348.776 449.604 349.696 449.988 350.736C450.388 351.76 450.588 352.824 450.588 353.928V354.456C450.588 355.512 450.388 356.552 449.988 357.576C449.604 358.6 449.02 359.528 448.236 360.36C447.452 361.192 446.468 361.856 445.284 362.352C444.1 362.848 442.716 363.096 441.132 363.096H437.724ZM434.796 363.096V345.36H438.204V363.096H434.796ZM453.632 363L459.608 345.48H465.176L471.32 363H467.816L462.608 347.808L463.832 348.336H460.832L462.08 347.808L457.04 363H453.632ZM457.808 358.344L458.888 355.464H465.992L467.048 358.344H457.808Z" fill="#FEFBFF"/>
<path fill-rule="evenodd" clip-rule="evenodd" d="M94.6654 319.851C94.6654 319.852 94.6657 319.826 94.6766 319.771C94.6871 319.717 94.7054 319.646 94.7347 319.559C94.7935 319.385 94.8901 319.165 95.0334 318.917C95.32 318.421 95.7759 317.841 96.4342 317.301C97.733 316.235 99.8636 315.292 103.14 315.533C116.1 316.484 123.415 325.41 123.415 332.161V372.168C123.415 372.805 123.268 373.099 123.132 373.241C123.004 373.375 122.718 373.546 122.028 373.546H114.306C113.616 373.546 113.33 373.375 113.202 373.241C113.066 373.1 112.919 372.805 112.919 372.168V335.238C112.919 332.828 111.735 330.421 109.988 328.634C108.238 326.842 105.817 325.566 103.213 325.566H94.6654V319.851ZM103.213 327.566H94.6654V372.168C94.6654 373.162 94.4817 374.108 93.7928 374.763C93.1156 375.407 92.1813 375.546 91.2784 375.546H83.4154C82.6084 375.546 81.7233 375.389 81.0382 374.792C80.3257 374.171 80.0284 373.251 80.0284 372.168V334.819C80.0284 332.956 81.0921 330.668 82.6635 328.878C84.2482 327.074 86.5354 325.566 89.1714 325.566H92.6654V319.851C92.6654 319.284 92.9171 318.582 93.3016 317.917C93.7056 317.217 94.317 316.45 95.1659 315.754C96.8815 314.347 99.525 313.262 103.287 313.538C117.005 314.545 125.415 324.098 125.415 332.161V372.168C125.415 373.069 125.212 373.963 124.575 374.626C123.931 375.297 123.024 375.546 122.028 375.546H114.306C113.311 375.546 112.403 375.297 111.759 374.626C111.123 373.963 110.919 373.069 110.919 372.168V335.238C110.919 333.463 110.026 331.534 108.558 330.031C107.093 328.532 105.161 327.566 103.213 327.566ZM89.1714 327.566H92.6654V372.168C92.6654 372.991 92.498 373.235 92.4146 373.314C92.3196 373.404 92.0604 373.546 91.2784 373.546H83.4154C82.8182 373.546 82.5098 373.422 82.3524 373.285C82.2226 373.171 82.0284 372.902 82.0284 372.168V334.819C82.0284 333.604 82.7896 331.766 84.1664 330.198C85.5299 328.645 87.3142 327.566 89.1714 327.566ZM164.111 381.128C164.111 381.13 164.11 381.156 164.1 381.209C164.089 381.262 164.071 381.333 164.042 381.42C163.983 381.595 163.886 381.814 163.743 382.063C163.457 382.559 163.001 383.139 162.342 383.679C161.043 384.744 158.913 385.687 155.636 385.447C142.676 384.495 135.361 375.569 135.361 368.819V328.812C135.361 328.175 135.508 327.88 135.644 327.739C135.772 327.605 136.058 327.434 136.748 327.434H144.471C145.16 327.434 145.446 327.605 145.575 327.739C145.71 327.88 145.858 328.175 145.858 328.812V365.741C145.858 368.151 147.042 370.559 148.788 372.346C150.539 374.137 152.96 375.414 155.563 375.414H164.111V381.128V381.128ZM155.563 373.414H164.111V328.812C164.111 327.817 164.295 326.872 164.984 326.216C165.661 325.572 166.595 325.434 167.498 325.434H175.361C176.168 325.434 177.053 325.59 177.738 326.187C178.451 326.808 178.748 327.728 178.748 328.812V366.161C178.748 368.023 177.684 370.312 176.113 372.101C174.528 373.906 172.241 375.414 169.605 375.414H166.111V381.128C166.111 381.695 165.859 382.397 165.475 383.063C165.071 383.762 164.459 384.529 163.611 385.225C161.895 386.632 159.252 387.718 155.49 387.441C141.772 386.434 133.361 376.882 133.361 368.819V328.812C133.361 327.91 133.565 327.016 134.201 326.353C134.845 325.683 135.753 325.434 136.748 325.434H144.471C145.466 325.434 146.373 325.683 147.017 326.353C147.654 327.016 147.858 327.91 147.858 328.812V365.741C147.858 367.516 148.75 369.445 150.219 370.948C151.683 372.447 153.615 373.414 155.563 373.414ZM169.605 373.414H166.111V328.812C166.111 327.988 166.279 327.745 166.362 327.666C166.457 327.575 166.716 327.434 167.498 327.434H175.361C175.958 327.434 176.267 327.558 176.424 327.695C176.554 327.808 176.748 328.077 176.748 328.812V366.161C176.748 367.376 175.987 369.214 174.61 370.782C173.247 372.334 171.462 373.414 169.605 373.414Z" fill="#FEFBFF"/>
<circle cx="581.889" cy="86.4971" r="45.7505" fill="#E71924"/>
<circle cx="637.647" cy="86.4971" r="45.7505" fill="#F99F19"/>
<path fill-rule="evenodd" clip-rule="evenodd" d="M609.768 122.595C620.636 114.23 627.64 101.092 627.64 86.3172C627.64 71.5428 620.636 58.404 609.768 50.0396C598.9 58.404 591.897 71.5428 591.897 86.3172C591.897 101.092 598.9 114.23 609.768 122.595Z" fill="#F26520"/>
<rect x="80.4209" y="156.195" width="97.9347" height="69.3406" rx="6.07624" fill="url(#paint1_linear_9284_24064)" stroke="#211F21" stroke-width="2.14455"/>
<path d="M80.7783 178.713H110.087" stroke="#211F21" stroke-width="2" stroke-linecap="round"/>
<path d="M80.7783 200.873H109.445" stroke="#211F21" stroke-width="2" stroke-linecap="round"/>
<path d="M149.404 200.873H177.998" stroke="#211F21" stroke-width="2" stroke-linecap="round"/>
<path d="M148.975 179.428H177.998" stroke="#211F21" stroke-width="2" stroke-linecap="round"/>
<circle cx="129.388" cy="166.561" r="2.14455" fill="#211F21"/>
<path d="M231.053 205.824C236.325 192.59 236.926 185.119 231.053 171.645C230.43 170.215 231.053 169.024 231.768 168.786C232.483 168.547 233.589 168.786 234.27 170.215C241.188 184.73 240.767 192.87 234.627 207.387C233.912 208.817 232.575 208.998 231.768 208.46C230.824 207.831 230.608 206.941 231.053 205.824Z" fill="#FEFBFF"/>
<path d="M223.547 172.717C222.832 173.075 222.375 174.43 223.19 175.934C227.999 185.94 227.801 191.662 223.19 202.026C222.686 203.071 222.998 204.226 223.905 204.528C224.977 204.886 225.913 204.125 226.406 203.098C231.701 192.084 231.84 185.756 226.406 174.147C225.905 173.075 224.619 172.181 223.547 172.717Z" fill="#FEFBFF"/>
<path d="M216.399 177.364C215.326 177.721 215.136 178.908 215.684 180.223C218.53 187.063 218.979 190.898 215.684 197.737C215.041 198.929 214.83 200.193 216.041 200.596C217.252 201 218.126 200.363 218.543 199.524C222.766 191.149 221.82 186.454 218.543 178.079C218.263 177.364 217.471 177.006 216.399 177.364Z" fill="#FEFBFF"/>
<path d="M208.893 180.223C207.82 180.938 207.668 182.022 208.535 183.797C210.344 187.564 210.303 189.68 208.535 193.448C207.713 195.11 207.463 197.022 208.893 197.38C210.322 197.737 210.957 197.229 211.752 195.235C213.578 189.987 213.756 187.02 211.752 181.653C211.291 180.261 210.322 179.508 208.893 180.223Z" fill="#FEFBFF"/>
<path d="M145.115 170.849C142.372 161.508 137.251 156.91 129.03 156.91C119.023 156.91 116.194 164.53 110.087 178.355C113.998 187.507 114.039 192.437 110.087 200.873C116.494 219.254 121.24 224.915 129.388 224.821C140.111 224.821 143.163 215.733 149.046 200.873C145.952 192.497 145.622 187.875 148.5 179.5" stroke="#211F21" stroke-width="2" stroke-linecap="round"/>
</g>
<defs>
<filter id="filter0_i_9284_24064" x="0" y="0" width="725" height="461" filterUnits="userSpaceOnUse" color-interpolation-filters="sRGB">
<feFlood flood-opacity="0" result="BackgroundImageFix"/>
<feBlend mode="normal" in="SourceGraphic" in2="BackgroundImageFix" result="shape"/>
<feColorMatrix in="SourceAlpha" type="matrix" values="0 0 0 0 0 0 0 0 0 0 0 0 0 0 0 0 0 0 127 0" result="hardAlpha"/>
<feOffset dx="3" dy="3"/>
<feGaussianBlur stdDeviation="3"/>
<feComposite in2="hardAlpha" operator="arithmetic" k2="-1" k3="1"/>
<feColorMatrix type="matrix" values="0 0 0 0 1 0 0 0 0 1 0 0 0 0 1 0 0 0 0.25 0"/>
<feBlend mode="normal" in2="shape" result="effect1_innerShadow_9284_24064"/>
</filter>
<linearGradient id="paint0_linear_9284_24064" x1="610.09" y1="61.83" x2="354.096" y2="526.995" gradientUnits="userSpaceOnUse">
<stop stop-color="#A950C4"/>
<stop offset="1" stop-color="#82269E"/>
</linearGradient>
<linearGradient id="paint1_linear_9284_24064" x1="171" y1="165" x2="87" y2="221" gradientUnits="userSpaceOnUse">
<stop stop-color="#F4F4F4"/>
<stop offset="1" stop-color="#D6D6D6"/>
</linearGradient>
<clipPath id="clip0_9284_24064">
<rect width="722" height="458" fill="white"/>
</clipPath>
</defs>
</svg>
